<mxfile host="app.diagrams.net" modified="2022-12-28T10:47:39.259Z" agent="5.0 (Windows NT 10.0; Win64; x64) AppleWebKit/537.36 (KHTML, like Gecko) Chrome/108.0.0.0 Safari/537.36" etag="7T736Rt834cgtoUBywZj" version="20.7.4" type="github">
  <diagram id="C5RBs43oDa-KdzZeNtuy" name="Page-1">
    <mxGraphModel dx="1674" dy="764" grid="1" gridSize="10" guides="1" tooltips="1" connect="1" arrows="1" fold="1" page="1" pageScale="1" pageWidth="827" pageHeight="1169" math="0" shadow="0">
      <root>
        <mxCell id="WIyWlLk6GJQsqaUBKTNV-0" />
        <mxCell id="WIyWlLk6GJQsqaUBKTNV-1" parent="WIyWlLk6GJQsqaUBKTNV-0" />
        <mxCell id="3hzFDHWeGPxAG9ukwYxC-19" style="edgeStyle=orthogonalEdgeStyle;rounded=0;orthogonalLoop=1;jettySize=auto;html=1;exitX=1;exitY=0.5;exitDx=0;exitDy=0;entryX=0;entryY=0.5;entryDx=0;entryDy=0;" edge="1" parent="WIyWlLk6GJQsqaUBKTNV-1" source="WIyWlLk6GJQsqaUBKTNV-7" target="3hzFDHWeGPxAG9ukwYxC-15">
          <mxGeometry relative="1" as="geometry">
            <Array as="points">
              <mxPoint x="140" y="270" />
              <mxPoint x="140" y="270" />
            </Array>
          </mxGeometry>
        </mxCell>
        <mxCell id="3hzFDHWeGPxAG9ukwYxC-21" style="edgeStyle=orthogonalEdgeStyle;rounded=0;orthogonalLoop=1;jettySize=auto;html=1;entryX=0;entryY=0.5;entryDx=0;entryDy=0;exitX=1;exitY=0.75;exitDx=0;exitDy=0;" edge="1" parent="WIyWlLk6GJQsqaUBKTNV-1" source="WIyWlLk6GJQsqaUBKTNV-7" target="WIyWlLk6GJQsqaUBKTNV-12">
          <mxGeometry x="0.037" y="-15" relative="1" as="geometry">
            <mxPoint x="80" y="320" as="targetPoint" />
            <Array as="points">
              <mxPoint x="100" y="430" />
              <mxPoint x="150" y="430" />
            </Array>
            <mxPoint as="offset" />
          </mxGeometry>
        </mxCell>
        <mxCell id="3hzFDHWeGPxAG9ukwYxC-25" style="edgeStyle=orthogonalEdgeStyle;rounded=0;orthogonalLoop=1;jettySize=auto;html=1;exitX=1;exitY=0.25;exitDx=0;exitDy=0;entryX=0;entryY=0.5;entryDx=0;entryDy=0;" edge="1" parent="WIyWlLk6GJQsqaUBKTNV-1" source="WIyWlLk6GJQsqaUBKTNV-7" target="3hzFDHWeGPxAG9ukwYxC-16">
          <mxGeometry relative="1" as="geometry">
            <Array as="points">
              <mxPoint x="100" y="178" />
            </Array>
          </mxGeometry>
        </mxCell>
        <mxCell id="WIyWlLk6GJQsqaUBKTNV-7" value="填报" style="rounded=1;whiteSpace=wrap;html=1;fontSize=12;glass=0;strokeWidth=1;shadow=0;" parent="WIyWlLk6GJQsqaUBKTNV-1" vertex="1">
          <mxGeometry x="20" y="250" width="80" height="40" as="geometry" />
        </mxCell>
        <mxCell id="3hzFDHWeGPxAG9ukwYxC-42" style="edgeStyle=orthogonalEdgeStyle;rounded=0;orthogonalLoop=1;jettySize=auto;html=1;entryX=0;entryY=0.5;entryDx=0;entryDy=0;" edge="1" parent="WIyWlLk6GJQsqaUBKTNV-1" source="WIyWlLk6GJQsqaUBKTNV-12" target="3hzFDHWeGPxAG9ukwYxC-34">
          <mxGeometry relative="1" as="geometry">
            <Array as="points">
              <mxPoint x="230" y="358" />
            </Array>
          </mxGeometry>
        </mxCell>
        <mxCell id="3hzFDHWeGPxAG9ukwYxC-43" style="edgeStyle=orthogonalEdgeStyle;rounded=0;orthogonalLoop=1;jettySize=auto;html=1;entryX=0;entryY=0.5;entryDx=0;entryDy=0;" edge="1" parent="WIyWlLk6GJQsqaUBKTNV-1" source="WIyWlLk6GJQsqaUBKTNV-12" target="3hzFDHWeGPxAG9ukwYxC-35">
          <mxGeometry relative="1" as="geometry" />
        </mxCell>
        <mxCell id="3hzFDHWeGPxAG9ukwYxC-46" style="edgeStyle=orthogonalEdgeStyle;rounded=0;orthogonalLoop=1;jettySize=auto;html=1;entryX=0;entryY=0.5;entryDx=0;entryDy=0;" edge="1" parent="WIyWlLk6GJQsqaUBKTNV-1" source="WIyWlLk6GJQsqaUBKTNV-12" target="3hzFDHWeGPxAG9ukwYxC-36">
          <mxGeometry relative="1" as="geometry">
            <Array as="points">
              <mxPoint x="230" y="488" />
            </Array>
          </mxGeometry>
        </mxCell>
        <mxCell id="3hzFDHWeGPxAG9ukwYxC-47" style="edgeStyle=orthogonalEdgeStyle;rounded=0;orthogonalLoop=1;jettySize=auto;html=1;exitX=0.5;exitY=1;exitDx=0;exitDy=0;entryX=0;entryY=0.5;entryDx=0;entryDy=0;" edge="1" parent="WIyWlLk6GJQsqaUBKTNV-1" source="WIyWlLk6GJQsqaUBKTNV-12" target="3hzFDHWeGPxAG9ukwYxC-37">
          <mxGeometry relative="1" as="geometry">
            <Array as="points">
              <mxPoint x="230" y="450" />
              <mxPoint x="230" y="538" />
            </Array>
          </mxGeometry>
        </mxCell>
        <mxCell id="3hzFDHWeGPxAG9ukwYxC-49" style="edgeStyle=orthogonalEdgeStyle;rounded=0;orthogonalLoop=1;jettySize=auto;html=1;exitX=0.5;exitY=1;exitDx=0;exitDy=0;entryX=0;entryY=0.5;entryDx=0;entryDy=0;" edge="1" parent="WIyWlLk6GJQsqaUBKTNV-1" source="WIyWlLk6GJQsqaUBKTNV-12" target="3hzFDHWeGPxAG9ukwYxC-38">
          <mxGeometry relative="1" as="geometry">
            <Array as="points">
              <mxPoint x="230" y="450" />
              <mxPoint x="230" y="603" />
            </Array>
          </mxGeometry>
        </mxCell>
        <mxCell id="WIyWlLk6GJQsqaUBKTNV-12" value="列表" style="rounded=1;whiteSpace=wrap;html=1;fontSize=12;glass=0;strokeWidth=1;shadow=0;" parent="WIyWlLk6GJQsqaUBKTNV-1" vertex="1">
          <mxGeometry x="150" y="410" width="80" height="40" as="geometry" />
        </mxCell>
        <mxCell id="3hzFDHWeGPxAG9ukwYxC-30" style="edgeStyle=orthogonalEdgeStyle;rounded=0;orthogonalLoop=1;jettySize=auto;html=1;exitX=1;exitY=0.5;exitDx=0;exitDy=0;entryX=0;entryY=0.5;entryDx=0;entryDy=0;" edge="1" parent="WIyWlLk6GJQsqaUBKTNV-1" source="3hzFDHWeGPxAG9ukwYxC-15" target="3hzFDHWeGPxAG9ukwYxC-31">
          <mxGeometry relative="1" as="geometry">
            <mxPoint x="300" y="270" as="targetPoint" />
            <Array as="points">
              <mxPoint x="240" y="233" />
            </Array>
          </mxGeometry>
        </mxCell>
        <mxCell id="3hzFDHWeGPxAG9ukwYxC-33" style="edgeStyle=orthogonalEdgeStyle;rounded=0;orthogonalLoop=1;jettySize=auto;html=1;exitX=1;exitY=0.5;exitDx=0;exitDy=0;" edge="1" parent="WIyWlLk6GJQsqaUBKTNV-1" source="3hzFDHWeGPxAG9ukwYxC-15" target="3hzFDHWeGPxAG9ukwYxC-32">
          <mxGeometry relative="1" as="geometry">
            <Array as="points">
              <mxPoint x="240" y="298" />
            </Array>
          </mxGeometry>
        </mxCell>
        <mxCell id="3hzFDHWeGPxAG9ukwYxC-15" value="权限管理" style="rounded=1;whiteSpace=wrap;html=1;fontSize=12;glass=0;strokeWidth=1;shadow=0;" vertex="1" parent="WIyWlLk6GJQsqaUBKTNV-1">
          <mxGeometry x="160" y="250" width="80" height="40" as="geometry" />
        </mxCell>
        <mxCell id="3hzFDHWeGPxAG9ukwYxC-29" style="edgeStyle=orthogonalEdgeStyle;rounded=0;orthogonalLoop=1;jettySize=auto;html=1;exitX=1;exitY=0.5;exitDx=0;exitDy=0;" edge="1" parent="WIyWlLk6GJQsqaUBKTNV-1" source="3hzFDHWeGPxAG9ukwYxC-16" target="3hzFDHWeGPxAG9ukwYxC-28">
          <mxGeometry relative="1" as="geometry" />
        </mxCell>
        <mxCell id="3hzFDHWeGPxAG9ukwYxC-16" value="数据管理" style="rounded=1;whiteSpace=wrap;html=1;fontSize=12;glass=0;strokeWidth=1;shadow=0;" vertex="1" parent="WIyWlLk6GJQsqaUBKTNV-1">
          <mxGeometry x="155" y="160" width="90" height="35" as="geometry" />
        </mxCell>
        <mxCell id="3hzFDHWeGPxAG9ukwYxC-28" value="配置可视化图表" style="rounded=1;whiteSpace=wrap;html=1;fontSize=12;glass=0;strokeWidth=1;shadow=0;" vertex="1" parent="WIyWlLk6GJQsqaUBKTNV-1">
          <mxGeometry x="300" y="160" width="90" height="35" as="geometry" />
        </mxCell>
        <mxCell id="3hzFDHWeGPxAG9ukwYxC-31" value="分享" style="rounded=1;whiteSpace=wrap;html=1;fontSize=12;glass=0;strokeWidth=1;shadow=0;" vertex="1" parent="WIyWlLk6GJQsqaUBKTNV-1">
          <mxGeometry x="300" y="215" width="90" height="35" as="geometry" />
        </mxCell>
        <mxCell id="3hzFDHWeGPxAG9ukwYxC-32" value="操作日志记录" style="rounded=1;whiteSpace=wrap;html=1;fontSize=12;glass=0;strokeWidth=1;shadow=0;" vertex="1" parent="WIyWlLk6GJQsqaUBKTNV-1">
          <mxGeometry x="300" y="280" width="90" height="35" as="geometry" />
        </mxCell>
        <mxCell id="3hzFDHWeGPxAG9ukwYxC-34" value="新建/编辑" style="rounded=1;whiteSpace=wrap;html=1;fontSize=12;glass=0;strokeWidth=1;shadow=0;" vertex="1" parent="WIyWlLk6GJQsqaUBKTNV-1">
          <mxGeometry x="300" y="340" width="90" height="35" as="geometry" />
        </mxCell>
        <mxCell id="3hzFDHWeGPxAG9ukwYxC-35" value="发布/取消发布" style="rounded=1;whiteSpace=wrap;html=1;fontSize=12;glass=0;strokeWidth=1;shadow=0;" vertex="1" parent="WIyWlLk6GJQsqaUBKTNV-1">
          <mxGeometry x="300" y="412.5" width="90" height="35" as="geometry" />
        </mxCell>
        <mxCell id="3hzFDHWeGPxAG9ukwYxC-36" value="下载" style="rounded=1;whiteSpace=wrap;html=1;fontSize=12;glass=0;strokeWidth=1;shadow=0;" vertex="1" parent="WIyWlLk6GJQsqaUBKTNV-1">
          <mxGeometry x="300" y="470" width="90" height="35" as="geometry" />
        </mxCell>
        <mxCell id="3hzFDHWeGPxAG9ukwYxC-37" value="分组/筛选/排序/隐藏列" style="rounded=1;whiteSpace=wrap;html=1;fontSize=12;glass=0;strokeWidth=1;shadow=0;" vertex="1" parent="WIyWlLk6GJQsqaUBKTNV-1">
          <mxGeometry x="300" y="520" width="90" height="35" as="geometry" />
        </mxCell>
        <mxCell id="3hzFDHWeGPxAG9ukwYxC-38" value="版本管理" style="rounded=1;whiteSpace=wrap;html=1;fontSize=12;glass=0;strokeWidth=1;shadow=0;" vertex="1" parent="WIyWlLk6GJQsqaUBKTNV-1">
          <mxGeometry x="300" y="585" width="90" height="35" as="geometry" />
        </mxCell>
      </root>
    </mxGraphModel>
  </diagram>
</mxfile>
